<svg xmlns="http://www.w3.org/2000/svg" version="1.1" xmlns:xlink="http://www.w3.org/1999/xlink" xmlns:svgjs="http://svgjs.dev/svgjs" width="2000" height="1247" viewBox="0 0 2000 1247"><g transform="matrix(1,0,0,1,-1.2121212121212466,0.504858299595071)"><svg viewBox="0 0 396 247" data-background-color="#fafafa" preserveAspectRatio="xMidYMid meet" height="1247" width="2000" xmlns="http://www.w3.org/2000/svg" xmlns:xlink="http://www.w3.org/1999/xlink"><g id="tight-bounds" transform="matrix(1,0,0,1,0.2400000000000091,-0.09999999999999432)"><svg viewBox="0 0 395.52 247.2" height="247.2" width="395.52"><g><svg></svg></g><g><svg viewBox="0 0 395.52 247.2" height="247.2" width="395.52"><g transform="matrix(1,0,0,1,122.80741499999999,47.215199999999996)"><svg viewBox="0 0 149.90517 152.7696" height="152.7696" width="149.90517"><g><svg viewBox="0 0 149.90517 152.7696" height="152.7696" width="149.90517"><g><svg viewBox="0 0 149.90517 152.7696" height="152.7696" width="149.90517"><g><svg viewBox="0 0 149.90517 152.7696" height="152.7696" width="149.90517"><g id="textblocktransform"><svg viewBox="0 0 149.90517 152.7696" height="152.7696" width="149.90517" id="textblock"><g><svg viewBox="0 0 149.90517 152.7696" height="152.7696" width="149.90517"><g transform="matrix(1,0,0,1,0,0)"><svg width="149.90517" viewBox="1.03 -37.6 38.33 39.06" height="152.7696" data-palette-color="#130912"><path d="M1.03-18.26L1.03-18.26Q1.03-21.63 1.78-24.44 2.54-27.25 3.8-29.2 5.05-31.15 6.82-32.67 8.59-34.18 10.47-35.1 12.35-36.01 14.51-36.6 16.67-37.18 18.55-37.39 20.43-37.6 22.36-37.6L22.36-37.6Q23.78-37.6 25.13-37.48 26.49-37.35 28.19-37.05 29.88-36.74 31.36-36.11 32.84-35.47 34.19-34.56 35.55-33.64 36.55-32.19 37.55-30.74 37.99-28.91L37.99-28.91Q38.11-28.2 38.48-24.9L38.48-24.9Q38.38-24.17 36.91-24.17L36.91-24.17Q34.81-24.17 30.81-24.27 26.81-24.37 24.8-24.37L24.8-24.37Q24.51-24.46 24.34-24.76 24.17-25.05 24.11-25.39 24.05-25.73 23.91-26.12 23.78-26.51 23.57-26.82 23.36-27.12 22.84-27.33 22.31-27.54 21.53-27.54L21.53-27.54Q20.51-27.54 19.7-27.19 18.9-26.83 18.38-26.32 17.87-25.81 17.5-24.93 17.14-24.05 16.96-23.33 16.77-22.61 16.67-21.5 16.58-20.39 16.56-19.75 16.55-19.12 16.55-18.07L16.55-18.07Q16.55-17.75 16.58-17.29 16.6-16.82 16.6-16.65L16.6-16.65 16.6-15.92Q16.6-15.14 16.63-14.62 16.65-14.11 16.76-13.31 16.87-12.5 17.07-11.95 17.26-11.4 17.64-10.78 18.02-10.16 18.57-9.78 19.12-9.4 19.95-9.14 20.78-8.89 21.83-8.89L21.83-8.89Q24.54-8.89 26.27-9.42L26.27-9.42 26.27-12.4 25.2-12.4 25.2-12.35 23.44-12.35Q23.24-12.35 22.74-12.33 22.24-12.3 21.92-12.3L21.92-12.3 21.04-13.28 21.04-20.02Q21.04-20.65 21.92-21.39L21.92-21.39 23.68-21.39Q25.51-21.39 28.13-21.34 30.74-21.29 32.13-21.29L32.13-21.29 34.08-21.29Q35.5-21.29 36.29-21.26 37.08-21.24 38.06-21.03 39.04-20.83 39.36-20.41L39.36-20.41Q39.36-17.21 39.21-11.08 39.06-4.96 39.06-2.2L39.06-2.2Q39.06-2.12 39.09-1.97 39.11-1.81 39.11-1.71L39.11-1.71 39.11-1.17Q38.28-0.2 33.69 0.54 29.1 1.27 25.98 1.27L25.98 1.27 25.34 1.27Q24.66 1.27 23.32 1.37 21.97 1.46 21.29 1.46L21.29 1.46Q11.45 1.46 6.24-3.8 1.03-9.06 1.03-18.26Z" opacity="1" transform="matrix(1,0,0,1,0,0)" fill="#ffffff" class="wordmark-text-0" data-fill-palette-color="primary" id="text-0"></path></svg></g></svg></g></svg></g></svg></g></svg></g></svg></g></svg></g><g><path d="M198.553 0c30.402 0 58.24 10.976 79.768 29.183l-11.147 0c-19.26-14.022-42.974-22.294-68.621-22.295-25.647 0-49.361 8.272-68.622 22.295l-11.147 0c21.528-18.206 49.366-29.183 79.769-29.183zM322.153 123.6c0 6.756-0.542 13.386-1.586 19.848l0-39.696c1.043 6.462 1.585 13.092 1.586 19.848zM198.553 247.2c-30.402 0-58.24-10.976-79.769-29.183l11.148 0c19.26 14.022 42.974 22.294 68.621 22.295 25.647 0 49.361-8.272 68.621-22.295l11.147 0c-21.528 18.206-49.366 29.183-79.768 29.183z" fill="#ffffff" stroke="transparent" data-fill-palette-color="tertiary"></path></g></svg></g><defs></defs></svg><rect width="395.52" height="247.2" fill="none" stroke="none" visibility="hidden"></rect></g></svg></g></svg>