<svg xmlns="http://www.w3.org/2000/svg" version="1.1" xmlns:xlink="http://www.w3.org/1999/xlink" xmlns:svgjs="http://svgjs.dev/svgjs" width="2000" height="1247" viewBox="0 0 2000 1247"><g transform="matrix(1,0,0,1,-1.2121212121212466,0.504858299595071)"><svg viewBox="0 0 396 247" data-background-color="#293040" preserveAspectRatio="xMidYMid meet" height="1247" width="2000" xmlns="http://www.w3.org/2000/svg" xmlns:xlink="http://www.w3.org/1999/xlink"><g id="tight-bounds" transform="matrix(1,0,0,1,0.2400000000000091,-0.09999999999999432)"><svg viewBox="0 0 395.52 247.2" height="247.2" width="395.52"><g><svg></svg></g><g><svg viewBox="0 0 395.52 247.2" height="247.2" width="395.52"><g transform="matrix(1,0,0,1,154.6931141654979,47.215199999999996)"><svg viewBox="0 0 86.13377166900422 152.7696" height="152.7696" width="86.13377166900422"><g><svg viewBox="0 0 86.13377166900422 152.7696" height="152.7696" width="86.13377166900422"><g><svg viewBox="0 0 86.13377166900422 152.7696" height="152.7696" width="86.13377166900422"><g><svg viewBox="0 0 86.13377166900422 152.7696" height="152.7696" width="86.13377166900422"><g id="textblocktransform"><svg viewBox="0 0 86.13377166900422 152.7696" height="152.7696" width="86.13377166900422" id="textblock"><g><svg viewBox="0 0 86.13377166900422 152.7696" height="152.7696" width="86.13377166900422"><g transform="matrix(1,0,0,1,0,0)"><svg width="86.13377166900422" viewBox="3.05 -25.7 20.099999999999998 35.65" height="152.7696" data-palette-color="#d5b263"><path d="M19.6-24.8Q19.6-25.3 20.1-25.3L20.1-25.3 22.65-25.3Q23.15-25.3 23.15-24.8L23.15-24.8 23.15-0.85Q23.15 4.75 19.93 7.35 16.7 9.95 11.05 9.95L11.05 9.95Q9.9 9.95 9.3 9.9L9.3 9.9Q8.8 9.85 8.8 9.35L8.8 9.35 8.9 7.05Q8.9 6.8 9.05 6.68 9.2 6.55 9.4 6.6L9.4 6.6 10.75 6.65Q15.4 6.65 17.5 4.83 19.6 3 19.6-0.95L19.6-0.95 19.6-2.8Q19.6-2.9 19.53-2.93 19.45-2.95 19.35-2.85L19.35-2.85Q17.05 0.15 12.8 0.15L12.8 0.15Q9.55 0.15 7.03-1.6 4.5-3.35 3.65-6.55L3.65-6.55Q3.05-8.6 3.05-12.65L3.05-12.65Q3.05-14.85 3.18-16.35 3.3-17.85 3.7-19.05L3.7-19.05Q4.6-22.05 6.95-23.88 9.3-25.7 12.6-25.7L12.6-25.7Q17.05-25.7 19.35-22.75L19.35-22.75Q19.45-22.65 19.53-22.7 19.6-22.75 19.6-22.85L19.6-22.85 19.6-24.8ZM19.35-7.65Q19.5-8.4 19.55-9.5 19.6-10.6 19.6-12.7L19.6-12.7Q19.6-15.25 19.55-16.13 19.5-17 19.3-17.75L19.3-17.75Q18.9-19.85 17.32-21.23 15.75-22.6 13.35-22.6L13.35-22.6Q11-22.6 9.38-21.25 7.75-19.9 7.1-17.75L7.1-17.75Q6.6-16.15 6.6-12.75L6.6-12.75Q6.6-9.1 7.1-7.7L7.1-7.7Q7.6-5.6 9.28-4.23 10.95-2.85 13.35-2.85L13.35-2.85Q15.8-2.85 17.38-4.2 18.95-5.55 19.35-7.65L19.35-7.65Z" opacity="1" transform="matrix(1,0,0,1,0,0)" fill="#d5b263" class="wordmark-text-0" data-fill-palette-color="primary" id="text-0"></path></svg></g></svg></g></svg></g></svg></g></svg></g></svg></g></svg></g><g><path d="M0 123.6c0-37.499 16.699-71.098 43.067-93.765l0 9.29c-22.29 21.256-36.178 51.244-36.179 84.475 0 33.232 13.889 63.219 36.179 84.475l0 9.29c-26.368-22.667-43.067-56.266-43.067-93.765zM123.6 0c30.402 0 58.24 10.976 79.768 29.183l-11.147 0c-19.26-14.022-42.974-22.294-68.621-22.295-25.647 0-49.361 8.272-68.621 22.295l-11.147 0c21.528-18.206 49.366-29.183 79.768-29.183zM123.6 247.2c-30.402 0-58.24-10.976-79.768-29.183l11.147 0c19.26 14.022 42.974 22.294 68.621 22.295 25.647 0 49.361-8.272 68.621-22.295l11.147 0c-21.528 18.206-49.366 29.183-79.768 29.183z" fill="#d5b263" stroke="transparent" data-fill-palette-color="tertiary"></path></g></svg></g><defs></defs></svg><rect width="395.52" height="247.2" fill="none" stroke="none" visibility="hidden"></rect></g></svg></g></svg>